<svg xmlns="http://www.w3.org/2000/svg" xmlns:xlink="http://www.w3.org/1999/xlink" width="500" zoomAndPan="magnify" viewBox="0 0 375 374.999991" height="500" preserveAspectRatio="xMidYMid meet" version="1.0"><defs><clipPath id="28c5c468a7"><path d="M 139 176 L 235.742188 176 L 235.742188 233.222656 L 139 233.222656 Z M 139 176 " clip-rule="nonzero"/></clipPath><clipPath id="499c89c6bb"><path d="M 139 141.722656 L 235.742188 141.722656 L 235.742188 199 L 139 199 Z M 139 141.722656 " clip-rule="nonzero"/></clipPath></defs><path fill="#ffffff" d="M 280.414062 304.867188 C 229.269531 346.496094 156.121094 348.988281 102.554688 310.945312 C 46.394531 271.050781 25.550781 197.226562 51.085938 134.703125 L 86.160156 152.835938 C 70.171875 195.40625 82.359375 243.4375 118 273.347656 C 143.601562 294.824219 179.09375 302.808594 212.929688 294.699219 L 206.839844 269.261719 C 181.019531 275.453125 154.09375 269.492188 134.8125 253.3125 C 105.21875 228.484375 96.957031 187.183594 114.714844 152.882812 L 120.726562 141.261719 L 39.359375 99.207031 L 33.347656 110.8125 C -6.152344 187.109375 17.089844 282.308594 87.40625 332.269531 C 129.046875 361.832031 180.699219 370.632812 228.328125 359.121094 C 252.910156 353.183594 276.414062 341.835938 296.921875 325.15625 C 302.992188 320.214844 308.601562 314.738281 313.960938 309.035156 L 289.757812 296.53125 C 286.753906 299.425781 283.65625 302.234375 280.414062 304.867188 Z M 287.6875 48.757812 C 225.304688 4.390625 139.75 6.757812 79.648438 54.535156 C 72.894531 59.90625 66.667969 65.882812 60.824219 72.132812 L 85.015625 84.632812 C 88.496094 81.269531 92.117188 78.03125 95.921875 75.003906 C 146.96875 34.4375 219.578125 32.402344 272.53125 70.070312 C 328.617188 109.972656 349.421875 183.769531 326.707031 247.6875 L 291.628906 229.5625 C 304.796875 185.625 292.671875 137.652344 257.148438 107.738281 C 230.863281 85.589844 194.515625 77.902344 159.808594 86.835938 L 166.0625 112.226562 C 192.460938 105.230469 220.503906 111.0625 240.304688 127.738281 C 269.800781 152.582031 278.015625 193.828125 260.285156 228.078125 L 254.273438 239.695312 L 335.648438 281.742188 L 341.652344 270.140625 C 381.121094 193.894531 357.921875 98.730469 287.6875 48.757812 " fill-opacity="1" fill-rule="nonzero"/><g clip-path="url(#28c5c468a7)"><path fill="#8000ff" d="M 235.964844 225.191406 L 227.886719 233.269531 L 187.496094 193.277344 L 147.109375 233.269531 L 139.03125 225.191406 L 187.496094 176.726562 Z M 235.964844 225.191406 " fill-opacity="1" fill-rule="nonzero"/></g><g clip-path="url(#499c89c6bb)"><path fill="#8000ff" d="M 235.964844 190.1875 L 227.886719 198.265625 L 187.496094 158.074219 L 147.109375 198.265625 L 139.03125 190.1875 L 187.496094 141.722656 Z M 235.964844 190.1875 " fill-opacity="1" fill-rule="nonzero"/></g></svg>